<svg version="1.0" xmlns="http://www.w3.org/2000/svg"
 width="32px" height="32px" viewBox="0 0 88.000000 83.000000"
 preserveAspectRatio="xMidYMid meet">
 <metadata>
 Created by potrace 1.14, written by Peter Selinger 2001-2017
 </metadata>
<g transform="translate(0.000000,83.000000) scale(0.100000,-0.100000)"
fill="#000000" stroke="none">
<path d="M277 642 c-238 -166 -249 -157 183 -157 432 0 421 -9 185 155 -91 63
-173 116 -183 117 -9 2 -92 -50 -185 -115z m309 -19 l125 -88 -126 -3 c-69 -1
-181 -1 -250 0 l-126 3 123 87 c68 48 124 87 126 87 1 1 59 -38 128 -86z"/>
<path d="M202 338 c3 -119 4 -123 26 -126 22 -3 22 -2 22 122 l0 126 -25 0
-26 0 3 -122z"/>
<path d="M360 334 c0 -124 0 -125 23 -122 21 3 22 7 25 126 l3 122 -26 0 -25
0 0 -126z"/>
<path d="M520 335 c0 -125 0 -126 23 -123 21 3 22 6 22 123 0 117 -1 120 -22
123 -23 3 -23 2 -23 -123z"/>
<path d="M680 335 c0 -118 1 -125 20 -125 23 0 22 -3 22 125 0 128 1 125 -22
125 -19 0 -20 -7 -20 -125z"/>
<path d="M160 175 l0 -25 300 0 300 0 0 25 0 25 -300 0 -300 0 0 -25z"/>
<path d="M117 123 c-4 -3 -7 -15 -7 -25 0 -17 17 -18 351 -18 l350 0 -3 23 -3
22 -341 3 c-187 1 -343 -1 -347 -5z"/>
</g>
</svg>
