<svg version="1.0" xmlns="http://www.w3.org/2000/svg"
 width="32px" height="32px" viewBox="0 0 84.000000 92.000000"
 preserveAspectRatio="xMidYMid meet">
 <metadata>
 Created by potrace 1.14, written by Peter Selinger 2001-2017
 </metadata>
<g transform="translate(0.000000,92.000000) scale(0.100000,-0.100000)"
fill="#000000" stroke="none">
<path d="M202 798 l-32 -23 3 -175 2 -175 169 -3 170 -2 33 32 33 32 0 168 0
168 -173 0 c-162 0 -174 -1 -205 -22z m323 -8 c-17 -18 -31 -20 -167 -20 -81
0 -148 3 -148 6 0 4 8 13 18 20 12 10 58 13 166 14 148 0 149 0 131 -20z m15
-324 l-20 -20 0 158 c0 138 2 162 18 179 16 18 17 12 20 -139 2 -147 1 -159
-18 -178z"/>
<path d="M543 423 c-22 -15 -23 -22 -23 -149 l0 -134 128 0 c173 0 172 -1 172
173 l0 127 -127 -1 c-99 0 -133 -4 -150 -16z m237 -8 c-10 -12 -37 -15 -129
-15 -104 1 -114 2 -97 15 15 11 49 15 129 15 96 0 108 -2 97 -15z m18 -238
c-11 -19 -13 -6 -16 97 -2 85 1 123 10 134 19 22 24 -198 6 -231z"/>
<path d="M132 382 l-32 -27 0 -121 c0 -128 10 -178 40 -194 10 -6 79 -10 152
-10 134 0 134 0 161 28 l27 28 0 162 0 162 -157 0 c-157 -1 -158 -1 -191 -28z
m318 10 c0 -26 -30 -32 -170 -32 l-145 1 24 19 c20 18 39 20 157 20 74 0 134
-4 134 -8z m0 -316 l-20 -20 0 143 c0 124 3 147 18 164 16 18 17 13 20 -124 2
-132 1 -144 -18 -163z"/>
</g>
</svg>
