<svg version="1.1" xmlns="http://www.w3.org/2000/svg" xmlns:xlink="http://www.w3.org/1999/xlink" width="32px" height="0px" viewBox="0 0 1000 1000" enable-background="new 0 0 1000 1000" xml:space="preserve" preserveAspectRatio="xMidYMid meet">
<metadata> Svg Vector Icons : http://www.onlinewebfonts.com/icon </metadata>
<g><g><g><g><path d="M600,226.6h125.5l0,146.4l63.6-98.8v-82.8c0-5.1-2-9.9-5.6-13.5L621.3,15.6c-3.6-3.6-8.4-5.6-13.5-5.6H105.9c-31.6,0-57.3,25.7-57.3,57.3v865.5c0,31.6,25.7,57.3,57.3,57.3h626c31.6,0,57.3-25.7,57.3-57.3V687l-63.6,97.3l0,142H112.3V73.6h464.1v129.3C576.4,216,587,226.6,600,226.6z"/><path d="M860.3,465.3L834,448.1c-4.3-2.8-10-1.6-12.8,2.7L679.5,667.5l-27.2-17.8L793.9,433c2.8-4.3,1.6-10-2.7-12.8L764.9,403c-4.3-2.8-10-1.6-12.8,2.7L540,730.1c-0.9,1.4-1.4,3-1.5,4.6L533,847.3c-0.2,3.3,1.4,6.4,4.2,8.2c2.8,1.8,6.3,2,9.2,0.5l100.9-50.3c1.5-0.7,2.7-1.8,3.6-3.2l212-324.5C865.8,473.8,864.6,468.1,860.3,465.3z"/><path d="M947.1,332.3L851.8,270c-4.3-2.8-10-1.6-12.8,2.7l-64.3,98.4c-2.8,4.3-1.6,10,2.7,12.9l95.4,62.3c4.3,2.8,10,1.6,12.8-2.7l64.3-98.4C952.6,340.9,951.4,335.1,947.1,332.3z"/><path d="M205,214.1h182c12.9,0,23.3-10.4,23.3-23.3c0-12.9-10.4-23.3-23.3-23.3H205c-12.9,0-23.3,10.4-23.3,23.3C181.6,203.6,192.1,214.1,205,214.1z"/><path d="M550.3,307.4c0-12.9-10.5-23.3-23.3-23.3H205c-12.9,0-23.3,10.4-23.3,23.3s10.4,23.3,23.3,23.3h322C539.9,330.7,550.3,320.3,550.3,307.4z"/><path d="M205,447.4h182c12.9,0,23.3-10.4,23.3-23.3c0-12.9-10.4-23.3-23.3-23.3H205c-12.9,0-23.3,10.4-23.3,23.3C181.6,437,192.1,447.4,205,447.4z"/><path d="M205,564.1h182c12.9,0,23.3-10.4,23.3-23.3c0-12.9-10.4-23.3-23.3-23.3H205c-12.9,0-23.3,10.5-23.3,23.3C181.6,553.6,192.1,564.1,205,564.1z"/><path d="M214.9,865.6c-4.5,5.9,3.7,14.2,8.3,8.2c14.5-18.7,26.5-38.9,36.5-60.2c6.2,3.9,14.4,3.1,21.2,0.5c9.7-3.8,17.9-11.2,25.7-17.9c4.6-3.9,10-10.5,16.4-11.1c4.9-0.5,11.5,3.5,16.4,4.3c12.8,2.2,27.7-1.5,40-4.6c11.7-2.9,25.4-7.5,32.3-18c4.1-6.3-6-12.2-10.1-5.9c-5.5,8.5-19,11.1-28.1,13.4c-10.7,2.6-23.1,5.2-34,3.4c-8.3-1.4-15-6.4-23.5-2.6c-11.4,5.1-20.1,15.8-30.2,23c-4.5,3.2-9.7,6.3-15.3,6.8c-2.3,0.2-4.2-0.7-5.8-2.1c1.2-2.9,2.5-5.8,3.6-8.7c11.4-28.2,16.5-56.9,21.8-86.7c2.7-15.1,7.1-38.9-14.5-40.4c-19.1-1.3-35.7,26.3-41.8,40.9c-5.5,13-6.1,28.1-5.7,42c0.3,8.7,3.4,17.7,5.7,26.6c-18.4,2.9-34.6,21.5-31.7,39.9c2.8,18.1,25.4,8.8,33.9,2.1c8.6-6.8,11.3-15.2,11.4-24.4c1.7,2.8,3.1,6.2,4.6,9.3C241.9,825.6,229.6,846.6,214.9,865.6z M235.3,799.6c-1.7,7.7-11.5,15.3-19.1,16c-6,0.6-2.4-10.2-1.2-12.6c3.7-7.6,13-12.5,20.8-14.6C236.2,792.1,236.1,795.9,235.3,799.6z M245.1,777c-2-9.3-4.7-18.6-5.5-27c-1.4-16.3,1.5-33.3,9.6-47.6c5-8.9,15.3-22.5,26.2-23.7c9.7-1,3.8,22.6,3,27.4c-2.6,14.7-4.5,29.3-8.1,43.8c-3.4,13.5-7.6,26.8-12.8,39.9C254.8,783,251.2,778.7,245.1,777z"/></g></g></g><g></g><g></g><g></g><g></g><g></g><g></g><g></g><g></g><g></g><g></g><g></g><g></g><g></g><g></g><g></g></g>
</svg>
