<?xml version="1.0" encoding="utf-8"?>
<!-- Svg Vector Icons : http://www.onlinewebfonts.com/icon -->
<!DOCTYPE svg PUBLIC "-//W3C//DTD SVG 1.1//EN" "http://www.w3.org/Graphics/SVG/1.1/DTD/svg11.dtd">
<svg version="1.1" xmlns="http://www.w3.org/2000/svg" xmlns:xlink="http://www.w3.org/1999/xlink" x="0px" y="0px" viewBox="0 0 1000 1000" enable-background="new 0 0 1000 1000" xml:space="preserve">
<metadata> Svg Vector Icons : http://www.onlinewebfonts.com/icon </metadata>
<g><path d="M133.2,430.3c0-0.7,0-1.3,0.1-2h-0.1V309c65.7,41.3,177.9,68.6,305.3,68.6c127.7,0,240.2-27.4,305.8-68.9v119.6h-0.1c0,0.7,0.1,1.3,0.1,2c0,1.5-0.1,3.1-0.4,4.6H805V222.1h0c-2.5-83.9-165.6-151.6-366.5-151.6C236.1,70.5,72,139.3,72,224.1v428.1h0c0,0,0,0,0,0.1c0,84.8,164.1,153.5,366.5,153.5c0.7,0,1.5,0,2.2,0v-61.2c-0.7,0-1.3,0-2,0c-168.8,0-305.6-41.4-305.6-92.4c0-0.7,0-1.3,0.1-2h-0.1V515.3c65.7,41.3,177.9,68.6,305.3,68.6c0.7,0,1.5,0,2.2,0v-61.2c-0.7,0-1.3,0-2,0C270,522.6,133.2,481.3,133.2,430.3z M438.7,131.6c168.8,0,305.6,41.4,305.6,92.4s-136.8,92.4-305.6,92.4C270,316.4,133.2,275,133.2,224C133.2,173,270,131.6,438.7,131.6z"/><path d="M926.9,564.5C926.1,510,823.3,466,696.5,466c-126.8,0-229.6,44-230.4,98.5h0v264.2c0,54.7,103.1,99.1,230.4,99.1c127.2,0,230.4-44.4,230.4-99.1L926.9,564.5L926.9,564.5z M860.3,828.7L860.3,828.7c-1.7,17.7-74.6,31.9-164.4,31.9c-89.8,0-162.7-14.2-164.4-31.9h0v-53.2c41.8,18.5,100.3,30,165,30c64.1,0,122-11.3,163.8-29.4V828.7z M860.3,706.3L860.3,706.3c-1.7,17.7-74.6,31.9-164.4,31.9c-89.8,0-162.7-14.2-164.4-31.9h0v-72.1c41.8,18.5,100.3,30,165,30c64.1,0,122-11.3,163.8-29.4V706.3z M695.9,597c-90.8,0-164.4-14.6-164.4-32.5S605.1,532,695.9,532c90.8,0,164.4,14.6,164.4,32.5S786.7,597,695.9,597z"/><path d="M10,10h980H10z"/><path d="M10,70.9h980H10z"/><path d="M10,133.1h980H10z"/><path d="M10,194h980H10z"/><path d="M10,254.5h980H10z"/><path d="M10,316.4h980H10z"/><path d="M10,377.6h980H10z"/><path d="M10,438.5h980H10z"/><path d="M10,500h980H10z"/><path d="M10,560.6h980H10z"/><path d="M10,621.1h980H10z"/><path d="M10,683.7h980H10z"/><path d="M10,744.2h980H10z"/><path d="M10,805.7h980H10z"/><path d="M10,867.1h980H10z"/><path d="M10,928.5h980H10z"/><path d="M10,989.9h980H10z"/><path d="M10.1,990V10V990z"/><path d="M70.9,990V10V990z"/><path d="M133.2,990V10V990z"/><path d="M194,990V10V990z"/><path d="M254.6,990V10V990z"/><path d="M316.4,990V10V990z"/><path d="M377.7,990V10V990z"/><path d="M438.5,990V10V990z"/><path d="M500.1,990V10V990z"/><path d="M560.6,990V10V990z"/><path d="M621.2,990V10V990z"/><path d="M683.7,990V10V990z"/><path d="M744.3,990V10V990z"/><path d="M805.8,990V10V990z"/><path d="M867.2,990V10V990z"/><path d="M928.6,990V10V990z"/><path d="M989.9,990V10V990z"/></g>
</svg>