<svg version="1.0" xmlns="http://www.w3.org/2000/svg"
 width="32" height="32" viewBox="0 0 512.000000 512.000000"
 preserveAspectRatio="xMidYMid meet">
<metadata>
Created by potrace 1.14, written by Peter Selinger 2001-2017
</metadata>
<g transform="translate(0.000000,512.000000) scale(0.100000,-0.100000)"
fill="#000000" stroke="none">
<path d="M2439 4178 c-570 -33 -1096 -394 -1345 -923 -239 -509 -193 -1117
121 -1585 369 -550 1021 -816 1675 -684 172 35 417 137 562 235 355 239 598
600 690 1023 19 88 22 130 22 326 0 195 -3 238 -22 323 -96 432 -336 787 -687
1020 -304 201 -636 288 -1016 265z m507 -382 c3 -8 -11 -46 -31 -85 l-35 -71
-318 2 -317 3 -3 41 c-2 25 2 45 10 51 7 6 153 24 323 41 377 36 364 35 371
18z m-14 -263 c64 -63 64 -83 -1 -83 l-48 0 -5 -109 c-4 -87 -10 -119 -30
-162 -71 -155 -245 -227 -403 -169 -79 30 -154 104 -184 184 -18 49 -21 78
-21 215 0 87 3 161 7 164 3 4 148 7 322 7 l315 0 48 -47z m-535 -1080 c193
-258 358 -480 367 -495 l18 -28 -318 -2 -319 -3 -3 -92 -3 -93 415 0 c368 0
415 2 420 16 3 9 6 49 6 89 l0 74 -365 488 c-200 268 -363 493 -361 498 2 6
155 11 428 13 l425 2 54 -28 c39 -20 62 -41 84 -77 l30 -48 3 -694 3 -693
-721 0 -720 0 0 688 c0 650 1 689 19 728 28 61 111 120 173 123 10 1 141 -167
365 -466z"/>
<path d="M2722 2600 c-61 -37 -69 -105 -18 -156 43 -43 90 -46 135 -8 57 48
47 135 -19 169 -39 20 -58 19 -98 -5z"/>
</g>
</svg>
