<?xml version="1.0" encoding="iso-8859-1"?>
<!-- Generator: Adobe Illustrator 19.2.1, SVG Export Plug-In . SVG Version: 6.00 Build 0)  -->
<svg version="1.1" xmlns="http://www.w3.org/2000/svg" xmlns:xlink="http://www.w3.org/1999/xlink" width="90" height="90"
	 viewBox="0 0 380 380" style="enable-background:new 0 0 380 380;" xml:space="preserve">
<path style="fill:#FCC200;" d="M290,310H90c-11.046,0-20-8.954-20-20V90c0-11.046,8.954-20,20-20h200c11.046,0,20,8.954,20,20v200
	C310,301.046,301.046,310,290,310z"/>
<path style="fill:#F07D28;" d="M190.001,49.998C112.681,49.998,50,112.679,50,190.001s62.681,140.001,140.001,140.001
	c77.326,0,139.999-62.679,139.999-140.001S267.327,49.998,190.001,49.998"/>
<path style="fill:#FFFFFF;" d="M190.001,310.002C123.831,310.002,70,256.169,70,190.001c0-66.17,53.831-120.003,120.001-120.003
	C256.169,69.998,310,123.831,310,190.001C310,256.169,256.169,310.002,190.001,310.002"/>
<path style="fill:#009FE3;" d="M155,169h-36c-2.209,0-4-1.791-4-4v-48c0-2.209,1.791-4,4-4h36c2.209,0,4,1.791,4,4v48
	C159,167.209,157.209,169,155,169z"/>
<path style="fill:#009FE3;" d="M208,169h-36c-2.209,0-4-1.791-4-4v-48c0-2.209,1.791-4,4-4h36c2.209,0,4,1.791,4,4v48
	C212,167.209,210.209,169,208,169z"/>
<path style="fill:#009FE3;" d="M261,169h-36c-2.209,0-4-1.791-4-4v-48c0-2.209,1.791-4,4-4h36c2.209,0,4,1.791,4,4v48
	C265,167.209,263.209,169,261,169z"/>
<g>
	<path style="fill:#FFFFFF;" d="M127.407,151.651l9.15-7.539c4.009-3.31,5.577-5.141,5.577-7.798c0-2.789-1.873-4.314-4.444-4.314
		c-2.092,0-3.573,0.958-5.404,2.92c-0.436,0.522-1.22,1.001-2.265,1.001c-1.699,0-3.051-1.348-3.051-3.048
		c0-0.742,0.305-1.526,0.786-2.093c2.57-3.005,5.533-4.751,10.369-4.751c6.493,0,10.85,3.835,10.85,9.718v0.089
		c0,5.226-2.7,7.887-8.322,12.287l-5.446,4.272h11.416c1.613,0,2.92,1.306,2.92,2.916c0,1.614-1.307,2.877-2.92,2.877h-17.385
		c-2.049,0-3.573-1.178-3.573-3.183C125.665,153.698,126.273,152.566,127.407,151.651z"/>
</g>
<g>
	<path style="fill:#FFFFFF;" d="M179.608,154.525c-0.61-0.522-1.134-1.437-1.134-2.395c0-1.742,1.481-3.225,3.225-3.225
		c0.958,0,1.613,0.394,2.134,0.83c1.875,1.653,3.835,2.526,6.406,2.526c2.744,0,4.706-1.614,4.706-4.052v-0.089
		c0-2.7-2.441-4.226-6.406-4.226h-1.134c-1.568,0-2.876-1.309-2.876-2.877c0-0.915,0.392-1.699,1.439-2.7l6.448-6.581H182.31
		c-1.57,0-2.876-1.306-2.876-2.874s1.306-2.877,2.876-2.877h15.599c1.96,0,3.399,1.135,3.399,2.963c0,1.614-0.784,2.53-2.005,3.704
		l-6.448,6.319c4.401,0.699,8.671,3.005,8.671,8.888v0.089c0,5.971-4.401,10.282-11.373,10.282
		C185.62,158.229,182.179,156.792,179.608,154.525z"/>
</g>
<g>
	<path style="fill:#FFFFFF;" d="M245.594,128.873h-13.291c-1.786,0-3.268-1.309-3.268-3.094c0-1.394,0.566-2.484,1.568-3.661
		l13.988-16.342c1.263-1.437,2.223-2.221,4.183-2.221c1.786,0,3.225,1.394,3.225,3.183v16.686h1.829c1.526,0,2.746,1.22,2.746,2.746
		s-1.22,2.704-2.746,2.704H252v3.963c0,1.788-1.439,3.183-3.225,3.183s-3.181-1.394-3.181-3.183V128.873z M245.594,123.423V113.01
		l-8.845,10.413H245.594z"/>
</g>
<g>
	<path style="fill:#FFFFFF;" d="M232.587,177.501c-0.784-0.568-1.35-1.44-1.35-2.572c0-1.742,1.437-3.225,3.181-3.225
		c0.784,0,1.35,0.22,1.873,0.61c1.96,1.483,3.92,2.178,6.188,2.178c3.094,0,5.315-1.699,5.315-4.619v-0.085
		c0-2.831-2.352-4.488-5.794-4.488c-2.746,0-4.009,0.873-4.925,0.873c-0.958,0-1.744-0.394-3.049-1.352
		c-0.96-0.653-1.352-1.614-1.265-2.746l0.655-10.892c0.087-1.614,1.35-2.877,2.963-2.877h13.899c1.613,0,2.964,1.352,2.964,2.963
		c0,1.614-1.352,2.92-2.964,2.92h-10.937l-0.392,5.883c1.307-0.348,2.528-0.61,4.357-0.61c6.232,0,11.068,3.051,11.068,10.108v0.089
		c0,6.667-4.836,10.892-11.765,10.892C238.252,180.549,235.158,179.332,232.587,177.501z"/>
</g>
<rect x="227" y="113" style="fill:#009FE3;" width="32" height="1"/>
<rect x="227" y="168" style="fill:#009FE3;" width="32" height="1"/>
<path style="fill:#7FBA00;" d="M190,281c-14.337,0-26-11.664-26-26C164,240.663,175.663,229,190,229c14.336,0,26,11.664,26,26.001
	C216,269.337,204.337,281,190,281"/>
<g>
	<path style="fill:#FFFFFF;" d="M190,263c-4.411,0-8-3.589-8-8c0-4.411,3.589-8,8-8c4.411,0,8,3.589,8,8
		C198,259.411,194.411,263,190,263"/>
	<path style="fill:#FFFFFF;" d="M190.009,232h-0.017c-1.24,0-2.274,0.946-2.385,2.181l-1.6,17.869
		c-0.125,1.401,0.978,2.608,2.385,2.608h3.218c1.407,0,2.51-1.207,2.385-2.608l-1.6-17.869C192.283,232.946,191.248,232,190.009,232
		z"/>
</g>
<g>
	<g>
		<path style="fill:#FCC200;" d="M203,189.999c0,7.182-5.819,13.001-13.003,13.001c-7.178,0-12.997-5.819-12.997-13.001
			c0-7.18,5.819-12.999,12.997-12.999C197.181,177,203,182.819,203,189.999"/>
	</g>
	<path style="fill:#FCC200;" d="M245.955,134.048l-0.003-0.003c-0.882-0.882-2.3-0.923-3.232-0.093l-55.664,49.581
		c-1.011,0.901-1.056,2.467-0.099,3.424l6.086,6.086c0.958,0.958,2.523,0.912,3.424-0.099l49.581-55.664
		C246.878,136.348,246.837,134.93,245.955,134.048z"/>
</g>
</svg>
