<svg version="1.0" xmlns="http://www.w3.org/2000/svg"
 width="32px" height="32px" viewBox="0 0 92.000000 88.000000"
 preserveAspectRatio="xMidYMid meet">
<metadata>
Created by potrace 1.14, written by Peter Selinger 2001-2017
</metadata>
<g transform="translate(0.000000,88.000000) scale(0.100000,-0.100000)"
fill="#000000" stroke="none">
<path d="M683 803 c-16 -3 -23 -11 -23 -28 0 -31 -35 -55 -69 -49 -22 5 -28 1
-37 -24 -10 -27 -9 -31 12 -41 28 -12 33 -61 9 -81 -19 -16 -19 -20 4 -49 16
-20 20 -22 39 -10 27 17 72 -2 72 -31 0 -16 7 -20 35 -20 30 0 35 3 35 23 0
36 32 60 68 52 27 -6 31 -3 37 24 5 23 1 35 -14 50 -24 24 -28 66 -6 75 21 8
19 30 -5 51 -16 14 -22 15 -35 5 -24 -20 -75 5 -75 36 0 24 -4 25 -47 17z"/>
<path d="M307 694 c-4 -4 -7 -17 -7 -29 0 -16 -9 -26 -30 -35 -27 -11 -33 -10
-51 6 -19 17 -21 17 -51 -14 -31 -30 -31 -32 -14 -51 26 -29 7 -76 -35 -85
-27 -5 -29 -9 -29 -51 0 -43 1 -45 29 -45 22 0 31 -6 41 -30 11 -27 10 -33 -6
-51 -17 -19 -17 -21 14 -51 30 -30 32 -31 50 -15 15 14 24 15 50 6 26 -9 32
-16 32 -41 0 -29 1 -29 48 -26 43 3 47 5 50 30 4 36 50 53 82 31 21 -15 24
-14 53 15 30 30 30 32 13 51 -16 18 -17 25 -6 50 8 21 20 31 38 33 24 3 27 8
30 46 3 40 1 43 -27 48 -42 9 -62 56 -35 85 17 19 17 21 -14 51 -30 31 -32 31
-51 14 -18 -16 -25 -17 -50 -6 -21 8 -31 20 -33 38 -3 24 -8 27 -43 30 -23 2
-44 0 -48 -4z m103 -161 c68 -40 67 -153 -1 -189 -80 -41 -169 7 -169 89 1 23
7 53 14 66 27 49 103 66 156 34z"/>
<path d="M711 354 c-13 -28 -55 -33 -82 -8 -16 14 -20 14 -43 -2 -24 -15 -25
-19 -13 -38 18 -28 1 -74 -27 -78 -16 -2 -22 -12 -24 -35 -3 -30 -1 -33 25
-33 37 -1 68 -41 53 -70 -9 -16 -6 -22 22 -36 22 -12 33 -13 36 -5 14 41 74
55 92 21 11 -20 11 -20 40 1 26 20 28 24 16 41 -20 28 0 78 32 78 20 0 23 4
20 33 -2 26 -8 33 -30 35 -35 4 -63 45 -48 71 11 21 8 25 -32 40 -22 8 -27 6
-37 -15z"/>
</g>
</svg>
